<?xml version="1.0" standalone="no"?>
<!DOCTYPE svg PUBLIC "-//W3C//DTD SVG 20010904//EN"
 "http://www.w3.org/TR/2001/REC-SVG-20010904/DTD/svg10.dtd">
<svg version="1.0" xmlns="http://www.w3.org/2000/svg"
 width="1024.000000pt" height="768.000000pt" viewBox="0 0 1024.000000 768.000000"
 preserveAspectRatio="xMidYMid meet">

<g transform="translate(0.000000,768.000000) scale(0.100000,-0.100000)"
fill="#000000" stroke="none">
<path d="M3716 5533 c-26 -153 -50 -288 -53 -300 -5 -22 -2 -23 56 -23 55 0
61 2 66 23 3 12 25 139 50 282 25 143 47 268 49 278 4 15 -4 17 -58 17 l-62 0
-48 -277z"/>
<path d="M4290 5802 c0 -4 -22 -135 -50 -290 -27 -155 -50 -287 -50 -292 0 -6
27 -10 60 -10 33 0 60 4 60 8 0 46 45 241 60 262 35 50 103 47 116 -4 3 -13
-4 -74 -15 -137 -12 -62 -21 -117 -21 -121 0 -10 120 -11 120 0 0 4 11 67 24
140 27 150 23 193 -19 230 -48 41 -149 27 -192 -28 -17 -21 -16 -10 7 116 11
60 20 115 20 122 0 8 -19 12 -60 12 -33 0 -60 -4 -60 -8z"/>
<path d="M5232 5780 c-154 -32 -262 -168 -264 -330 -1 -185 157 -293 346 -236
46 14 126 62 126 75 -1 3 -16 23 -34 43 l-33 38 -33 -25 c-72 -53 -169 -38
-217 34 -54 80 -6 228 90 277 47 25 121 22 158 -5 l30 -22 45 36 c25 21 43 42
42 49 -6 20 -111 65 -163 70 -27 3 -69 1 -93 -4z"/>
<path d="M2245 5758 c-2 -7 -22 -121 -45 -253 -23 -132 -44 -253 -47 -268 l-6
-28 64 3 63 3 21 115 20 115 113 3 c86 2 112 0 112 -10 0 -17 -29 -188 -36
-210 -5 -16 2 -18 60 -18 38 0 66 4 66 10 0 6 20 124 45 263 25 140 45 261 45
270 0 14 -11 17 -60 17 -59 0 -59 0 -65 -32 -3 -18 -12 -64 -18 -103 l-13 -70
-112 -3 c-129 -3 -121 -13 -97 111 8 43 15 83 15 88 0 14 -120 11 -125 -3z"/>
<path d="M3984 5658 c-8 -50 -11 -53 -40 -56 -26 -3 -33 -8 -38 -34 -9 -46 -8
-48 24 -48 35 0 34 5 14 -100 -31 -166 -9 -211 101 -211 64 0 75 8 75 59 0 29
-3 32 -30 32 -41 0 -46 18 -31 109 18 113 17 111 61 111 35 0 40 3 46 28 3 15
7 32 9 39 3 8 -11 13 -38 15 -23 2 -41 8 -41 13 1 6 4 29 8 53 l6 42 -58 0
-59 0 -9 -52z"/>
<path d="M7925 5673 c-12 -68 -15 -73 -45 -73 -24 0 -31 -5 -36 -27 -3 -16 -7
-34 -10 -40 -2 -8 7 -13 25 -13 15 0 30 -2 33 -5 3 -3 -4 -55 -15 -115 -22
-126 -16 -160 33 -180 25 -10 127 -16 135 -8 1 2 6 22 10 46 7 42 7 42 -24 42
-46 0 -52 22 -33 125 l17 90 41 3 c38 3 42 6 48 34 9 47 9 48 -34 48 -44 0
-44 1 -31 68 l8 42 -58 0 -58 0 -6 -37z"/>
<path d="M2943 5610 c-119 -24 -190 -121 -181 -248 7 -106 69 -157 188 -156
47 0 79 6 112 23 70 34 74 43 31 74 -33 23 -40 25 -58 13 -69 -44 -165 -16
-165 48 0 13 22 16 143 18 l142 3 3 60 c2 50 -1 67 -20 95 -41 60 -112 86
-195 70z m90 -92 c9 -7 19 -25 23 -40 l6 -28 -91 0 c-58 0 -91 4 -91 11 0 6
13 24 29 40 23 22 39 29 68 29 22 0 47 -6 56 -12z"/>
<path d="M3383 5609 c-43 -8 -98 -32 -107 -47 -3 -5 5 -22 17 -39 l22 -30 40
18 c66 30 113 21 128 -24 8 -21 -26 -37 -81 -37 -59 0 -111 -19 -149 -54 -28
-25 -36 -41 -40 -78 -5 -42 -3 -50 25 -78 41 -41 119 -45 180 -9 41 24 41 24
35 -1 -5 -18 0 -20 49 -20 l54 0 24 148 c22 142 22 149 6 184 -27 57 -112 85
-203 67z m87 -239 c0 -55 -81 -106 -129 -81 -24 13 -28 53 -7 70 20 16 64 29
104 30 26 1 32 -3 32 -19z"/>
<path d="M5670 5609 c-66 -13 -120 -55 -153 -119 -25 -48 -28 -64 -25 -122 3
-58 8 -71 33 -99 44 -46 83 -62 150 -63 146 -2 245 91 245 229 0 61 -9 86 -48
127 -40 43 -124 62 -202 47z m106 -112 c21 -18 27 -32 27 -63 0 -102 -97 -168
-166 -114 -35 28 -42 68 -21 120 30 74 107 102 160 57z"/>
<path d="M7160 5610 c-110 -21 -190 -119 -190 -232 0 -143 165 -222 310 -148
61 31 65 43 27 73 l-34 26 -41 -20 c-51 -25 -104 -18 -132 18 -39 50 -32 53
124 53 l145 0 6 45 c11 69 -21 142 -73 168 -36 19 -98 26 -142 17z m92 -97
c10 -9 18 -27 18 -40 0 -22 -2 -23 -90 -23 l-91 0 12 23 c28 54 111 77 151 40z"/>
<path d="M7633 5610 c-82 -17 -136 -61 -172 -140 -45 -100 -15 -200 74 -248
41 -21 150 -21 190 1 62 34 61 32 34 71 -27 41 -31 42 -64 20 -31 -20 -87 -12
-116 17 -24 24 -26 90 -3 129 33 55 106 76 152 45 20 -15 24 -14 58 18 41 37
40 47 -8 70 -46 20 -95 26 -145 17z"/>
<path d="M6210 5593 c-14 -9 -29 -23 -33 -30 -14 -22 -28 -14 -21 12 6 25 5
25 -53 25 l-58 0 -29 -167 c-15 -93 -30 -180 -33 -195 l-5 -28 61 0 c33 0 61
4 61 8 0 44 46 242 61 263 24 35 64 45 95 24 29 -19 30 -36 4 -179 -11 -60
-20 -111 -20 -113 0 -2 27 -3 60 -3 33 0 60 1 60 3 0 1 11 65 25 141 28 157
24 200 -22 235 -33 27 -117 29 -153 4z"/>
<path d="M6685 5579 l-35 -31 0 26 c0 26 -1 27 -57 24 l-57 -3 -27 -156 c-14
-85 -29 -172 -33 -192 l-7 -37 60 0 60 0 10 53 c6 28 15 81 21 117 15 84 32
115 71 129 46 16 79 -7 79 -53 0 -29 -19 -151 -35 -223 -5 -22 -2 -23 55 -23
69 0 59 -18 90 162 24 138 20 178 -22 213 -23 20 -41 25 -83 25 -46 0 -59 -5
-90 -31z"/>
<path d="M4700 5463 c-1 -5 -5 -27 -9 -50 l-8 -43 97 0 98 0 6 31 c14 71 16
69 -89 69 -52 0 -95 -3 -95 -7z"/>
<path d="M4250 4718 c-49 -25 -81 -75 -100 -155 -10 -40 -13 -43 -44 -43 -36
0 -46 -15 -46 -72 0 -25 4 -28 33 -28 l33 0 -26 -147 -26 -148 59 -3 c33 -2
61 -1 63 1 4 4 54 272 54 289 0 4 20 8 45 8 40 0 45 3 50 25 3 14 7 36 10 50
5 24 3 25 -41 25 l-46 0 6 32 c11 54 32 78 70 78 33 0 35 2 44 47 6 26 8 51 6
55 -11 17 -100 8 -144 -14z"/>
<path d="M7335 4718 c-2 -7 -25 -132 -50 -278 -25 -146 -48 -277 -51 -292 l-6
-28 66 0 65 0 6 33 c57 308 101 568 97 572 -12 11 -123 5 -127 -7z"/>
<path d="M5683 4710 c-43 -17 -58 -84 -25 -113 44 -40 122 -5 122 53 0 45 -53
77 -97 60z"/>
<path d="M2895 4679 c-3 -8 -27 -137 -53 -286 l-48 -273 66 0 67 0 18 104 18
104 86 7 c141 11 209 54 231 145 14 60 6 101 -28 142 -41 48 -82 60 -224 66
-103 4 -129 2 -133 -9z m239 -118 c9 -8 16 -29 16 -47 0 -44 -33 -66 -107 -72
l-56 -5 8 58 c11 88 10 88 71 83 29 -3 60 -10 68 -17z"/>
<path d="M3505 4518 c-11 -6 -30 -20 -43 -32 l-24 -21 7 28 7 27 -61 0 c-41 0
-63 -4 -65 -12 -5 -16 -66 -370 -66 -380 0 -5 28 -8 63 -8 l64 0 17 101 c10
56 22 114 28 130 12 35 51 61 94 62 28 1 34 5 39 29 3 15 8 42 11 58 5 28 3
30 -23 30 -15 0 -37 -6 -48 -12z"/>
<path d="M3713 4514 c-128 -46 -195 -229 -119 -329 33 -42 71 -63 130 -71 98
-14 194 25 244 99 34 51 49 135 33 188 -32 106 -163 157 -288 113z m144 -116
c38 -36 30 -101 -20 -155 -27 -31 -98 -32 -127 -3 -32 32 -27 97 11 143 26 32
36 37 72 37 28 0 48 -7 64 -22z"/>
<path d="M4509 4516 c-153 -55 -212 -258 -103 -357 72 -65 218 -66 295 -2 l32
27 -38 32 -38 32 -31 -19 c-45 -27 -101 -25 -131 6 -14 13 -25 29 -25 35 0 6
49 10 139 10 96 0 142 4 147 12 15 24 8 125 -12 159 -38 67 -147 97 -235 65z
m119 -92 c12 -8 22 -26 22 -40 0 -24 -2 -24 -85 -24 -47 0 -85 3 -85 8 1 12
34 49 55 60 29 16 67 14 93 -4z"/>
<path d="M4924 4511 c-56 -26 -84 -64 -84 -116 0 -54 28 -85 99 -111 64 -23
81 -46 49 -68 -29 -21 -43 -20 -96 5 l-43 21 -35 -32 c-28 -28 -31 -36 -21
-48 41 -50 190 -69 257 -33 50 27 75 65 75 116 0 56 -29 88 -107 116 -42 16
-58 27 -58 40 0 40 72 48 111 13 14 -12 20 -10 54 19 45 39 42 50 -19 78 -52
24 -129 24 -182 0z"/>
<path d="M5307 4516 c-46 -17 -64 -32 -83 -67 -36 -71 -6 -131 84 -164 74 -28
85 -41 56 -69 -21 -21 -52 -20 -98 4 -42 21 -56 18 -94 -22 -21 -24 -22 -25
-4 -41 53 -48 187 -63 252 -28 43 22 80 74 80 112 0 63 -35 97 -132 128 -26 9
-38 18 -38 31 0 41 72 49 111 14 14 -13 21 -11 57 20 39 32 40 35 24 49 -49
45 -142 59 -215 33z"/>
<path d="M5934 4507 c-82 -40 -134 -123 -134 -217 0 -28 6 -63 14 -78 61 -117
240 -138 350 -40 53 46 78 104 78 181 0 108 -66 168 -192 174 -53 3 -75 -1
-116 -20z m158 -104 c24 -28 30 -59 18 -102 -14 -53 -51 -81 -105 -81 -45 0
-68 17 -78 58 -8 34 11 91 40 118 32 30 102 33 125 7z"/>
<path d="M6545 4517 c-17 -8 -39 -22 -48 -31 -16 -16 -17 -16 -17 8 0 25 -2
26 -60 26 -54 0 -60 -2 -65 -22 -2 -13 -16 -90 -30 -173 -14 -82 -28 -162 -31
-177 l-6 -28 66 0 c36 0 66 1 66 3 0 2 9 54 20 116 28 154 44 181 104 181 49
0 56 -33 31 -165 -8 -44 -17 -92 -20 -107 l-4 -28 64 0 64 0 10 53 c47 240 47
278 1 322 -34 33 -100 42 -145 22z"/>
<path d="M6920 4514 c-25 -8 -53 -21 -64 -29 -18 -13 -18 -15 4 -49 24 -40 25
-41 60 -21 26 15 87 20 114 9 9 -3 16 -16 16 -29 0 -20 -6 -23 -69 -28 -125
-10 -201 -66 -201 -147 0 -91 110 -140 203 -90 31 17 37 17 37 5 0 -12 13 -15
60 -15 59 0 60 1 60 28 0 15 9 76 20 137 11 60 17 124 14 142 -16 86 -133 126
-254 87z m120 -234 c0 -21 -24 -59 -44 -70 -13 -6 -38 -10 -57 -8 -28 2 -35 7
-37 30 -3 21 3 30 25 42 31 17 113 22 113 6z"/>
<path d="M5592 4333 c-18 -104 -32 -194 -32 -201 0 -10 16 -12 62 -10 l62 3
33 180 c17 99 32 188 32 198 1 14 -8 17 -62 17 l-63 0 -32 -187z"/>
</g>
</svg>
